<svg xmlns="http://www.w3.org/2000/svg" xmlns:xlink="http://www.w3.org/1999/xlink" width="500" zoomAndPan="magnify" viewBox="0 0 375 374.999991" height="500" preserveAspectRatio="xMidYMid meet" version="1.2"><defs><clipPath id="0ea8c7776c"><path d="M 79.296875 106 L 249 106 L 249 274.902344 L 79.296875 274.902344 Z M 79.296875 106 "/></clipPath><filter x="0%" y="0%" width="100%" filterUnits="objectBoundingBox" id="41728466b2" height="100%"><feColorMatrix values="0 0 0 0 1 0 0 0 0 1 0 0 0 0 1 0 0 0 1 0" type="matrix" in="SourceGraphic"/></filter><clipPath id="45346e4d69"><path d="M 0.296875 0.078125 L 169.640625 0.078125 L 169.640625 168.902344 L 0.296875 168.902344 Z M 0.296875 0.078125 "/></clipPath><clipPath id="b066dfaf2f"><rect x="0" width="170" y="0" height="169"/></clipPath><clipPath id="5726b158d9"><path d="M 126 105 L 296 105 L 296 274.902344 L 126 274.902344 Z M 126 105 "/></clipPath><clipPath id="a25af86eaa"><path d="M 0.480469 1 L 169.679688 1 L 169.679688 169.902344 L 0.480469 169.902344 Z M 0.480469 1 "/></clipPath><clipPath id="6be15cc0a4"><rect x="0" width="170" y="0" height="170"/></clipPath></defs><g id="c16e6977e1"><g clip-rule="nonzero" clip-path="url(#0ea8c7776c)"><g mask="url(#2adf99c57d)" transform="matrix(1,0,0,1,79,106)"><g clip-path="url(#b066dfaf2f)"><g clip-rule="nonzero" clip-path="url(#45346e4d69)"><path style=" stroke:none;fill-rule:nonzero;fill:#ed0e64;fill-opacity:1;" d="M 108.332031 168.851562 C 92.761719 168.851562 77.1875 162.925781 65.332031 151.070312 L 18.128906 103.867188 C 6.640625 92.378906 0.316406 77.109375 0.316406 60.867188 C 0.316406 44.621094 6.640625 29.351562 18.128906 17.863281 C 41.839844 -5.847656 80.421875 -5.847656 104.132812 17.863281 L 151.335938 65.066406 C 162.820312 76.550781 169.148438 91.824219 169.148438 108.070312 C 169.148438 124.3125 162.820312 139.582031 151.335938 151.070312 C 139.480469 162.925781 123.90625 168.851562 108.332031 168.851562 Z M 61.128906 26.980469 C 52.449219 26.980469 43.765625 30.285156 37.15625 36.894531 C 30.753906 43.296875 27.226562 51.808594 27.226562 60.863281 C 27.226562 69.921875 30.753906 78.433594 37.15625 84.835938 L 84.359375 132.039062 C 97.578125 145.257812 119.085938 145.257812 132.304688 132.039062 C 138.707031 125.636719 142.234375 117.125 142.234375 108.066406 C 142.234375 99.011719 138.707031 90.5 132.304688 84.097656 L 85.101562 36.894531 C 78.492188 30.285156 69.8125 26.980469 61.128906 26.980469 Z M 61.128906 26.980469 "/></g></g><mask id="2adf99c57d"><g filter="url(#41728466b2)"><rect x="0" width="375" y="0" height="374.999991" style="fill:#000000;fill-opacity:0.7;stroke:none;"/></g></mask></g></g><g clip-rule="nonzero" clip-path="url(#5726b158d9)"><g mask="url(#a2c14d2c30)" transform="matrix(1,0,0,1,126,105)"><g clip-path="url(#6be15cc0a4)"><g clip-rule="nonzero" clip-path="url(#a25af86eaa)"><path style=" stroke:none;fill-rule:nonzero;fill:#00c6fe;fill-opacity:1;" d="M 61.664062 169.851562 C 46.089844 169.851562 30.515625 163.925781 18.660156 152.070312 C 7.175781 140.582031 0.847656 125.3125 0.847656 109.070312 C 0.847656 92.824219 7.175781 77.550781 18.660156 66.066406 L 65.863281 18.863281 C 89.574219 -4.847656 128.15625 -4.847656 151.867188 18.863281 C 163.351562 30.347656 169.679688 45.621094 169.679688 61.867188 C 169.679688 78.109375 163.351562 93.378906 151.867188 104.867188 L 104.664062 152.070312 C 92.808594 163.925781 77.234375 169.851562 61.664062 169.851562 Z M 108.867188 27.980469 C 100.183594 27.980469 91.503906 31.285156 84.894531 37.894531 L 37.691406 85.097656 C 31.285156 91.5 27.761719 100.011719 27.761719 109.070312 C 27.761719 118.125 31.285156 126.636719 37.691406 133.039062 C 50.90625 146.257812 72.414062 146.257812 85.632812 133.039062 L 132.835938 85.835938 C 139.242188 79.433594 142.765625 70.921875 142.765625 61.867188 C 142.765625 52.808594 139.242188 44.296875 132.835938 37.894531 C 126.226562 31.285156 117.546875 27.980469 108.867188 27.980469 Z M 108.867188 27.980469 "/></g></g><mask id="a2c14d2c30"><g filter="url(#41728466b2)"><rect x="0" width="375" y="0" height="374.999991" style="fill:#000000;fill-opacity:0.7;stroke:none;"/></g></mask></g></g></g></svg>